# xmcd CD database file
#
# Track frame offsets:
#	150
#	25930
#	45612
#	65607
#	82327
#	103542
#	127600
#	150878
#	173091
#	195964
#	215260
#	226916
#	252668
#	271481
#	291639
#
# Disc length: 4234 seconds
#
# Revision: 1
# Processed by: cddbd v1.4PL0 Copyright (c) Steve Scherf et al.
# Submitted via: CDex 1.50
#
DISCID=cd10880f
DTITLE=Various Artist - Midnight Groove (Art of Smooth Jazz)
DYEAR=2003
DGENRE=Jazz
TTITLE0=Ricky Peterson - It's all right
TTITLE1=Earl Klugh - No regrets
TTITLE2=Tom Scott - Love will lead you back
TTITLE3=Todd Cochrane - A voice in the forest
TTITLE4=Marion Meadows - Just in time
TTITLE5=David arkenstone and Tim Weisberg - Cruisin'
TTITLE6=Craig Chaquico and Russ Freeman - Tribal runner
TTITLE7=Braxton Brothers - Sunset bay
TTITLE8=Lani Hall - Waters of march (Aguas de março)
TTITLE9=Phil Perry - One heart, one love
TTITLE10=Tuck and Patti - Joy spring
TTITLE11=Larry Coryell - Balançando a floresta
TTITLE12=Paul Horn - I'll always be with you
TTITLE13=Tom Grant - Firefly
TTITLE14=Peter White - Romance dance
EXTD=YEAR: 2003
EXTT0=
EXTT1=
EXTT2=
EXTT3=
EXTT4=
EXTT5=
EXTT6=
EXTT7=
EXTT8=
EXTT9=
EXTT10=
EXTT11=
EXTT12=
EXTT13=
EXTT14=
PLAYORDER=
